<?xml version="1.0" encoding="UTF-8" standalone="no"?>
<!-- Created with Inkscape (http://www.inkscape.org/) -->

<svg
   width="59.33749mm"
   height="70.250977mm"
   viewBox="0 0 59.33749 70.250977"
   version="1.1"
   id="svg1004"
   inkscape:version="1.1 (c4e8f9ed74, 2021-05-24)"
   sodipodi:docname="logo.svg"
   xmlns:inkscape="http://www.inkscape.org/namespaces/inkscape"
   xmlns:sodipodi="http://sodipodi.sourceforge.net/DTD/sodipodi-0.dtd"
   xmlns="http://www.w3.org/2000/svg"
   xmlns:svg="http://www.w3.org/2000/svg">
  <sodipodi:namedview
     id="namedview1006"
     pagecolor="#ffffff"
     bordercolor="#666666"
     borderopacity="1.0"
     inkscape:pageshadow="2"
     inkscape:pageopacity="0.0"
     inkscape:pagecheckerboard="0"
     inkscape:document-units="mm"
     showgrid="false"
     inkscape:zoom="0.58796296"
     inkscape:cx="165.82677"
     inkscape:cy="353.76378"
     inkscape:window-width="1920"
     inkscape:window-height="1016"
     inkscape:window-x="0"
     inkscape:window-y="0"
     inkscape:window-maximized="1"
     inkscape:current-layer="layer1" />
  <defs
     id="defs1001">
    <clipPath
       id="_clip2">
      <rect
         x="52.347"
         y="110.502"
         width="89.612999"
         height="284.08801"
         id="rect173" />
    </clipPath>
  </defs>
  <g
     inkscape:label="Layer 1"
     inkscape:groupmode="layer"
     id="layer1"
     transform="translate(-61.361937,-131.35592)">
    <g
       transform="matrix(-0.54770337,0,0,0.1028147,144.11672,126.59532)"
       id="g194"
       style="clip-rule:evenodd;fill-rule:evenodd;stroke-linejoin:round;stroke-miterlimit:2">
      <rect
         x="52.347"
         y="110.502"
         width="89.612999"
         height="284.08801"
         style="fill:none"
         id="rect171" />
      <clipPath
         id="clipPath920">
        <rect
           x="52.347"
           y="110.502"
           width="89.612999"
           height="284.08801"
           id="rect918" />
      </clipPath>
      <g
         clip-path="url(#_clip2)"
         id="g192">
        <g
           transform="matrix(-2.69599,0,0,14.3618,106,81.7931)"
           id="g178">
          <path
             d="m 19.901,20.342 h -3.058 l -2.005,-7.467 -4.299,7.467 H 7.109 L 13.743,8.778 12.668,4.742 3.719,20.342 H 0.289 L 11.635,0.562 h 3.017 l 1.302,4.929 h 3.1 l -2.108,3.703 z"
             style="fill-rule:nonzero"
             id="path176" />
        </g>
        <g
           transform="matrix(-2.69599,0,0,14.3618,142.756,81.7931)"
           id="g182">
          <path
             d="M 19.054,5.491 10.539,20.342 H 7.109 L 15.954,5.491 Z"
             style="fill-rule:nonzero"
             id="path180" />
        </g>
        <g
           transform="matrix(-2.69599,0,0,14.3618,161.125,81.7931)"
           id="g186">
          <path
             d="M 19.054,5.491 10.539,20.342 H 7.109 L 15.954,5.491 Z"
             style="fill-rule:nonzero"
             id="path184" />
        </g>
        <g
           transform="matrix(-2.69599,0,0,14.3618,179.183,81.7931)"
           id="g190">
          <path
             d="M 19.054,5.491 10.539,20.342 H 7.109 L 15.954,5.491 Z"
             style="fill-rule:nonzero"
             id="path188" />
        </g>
      </g>
    </g>
    <g
       transform="matrix(0.21636593,0,0,0.23049203,13.632262,121.46505)"
       id="g198"
       style="clip-rule:evenodd;fill-rule:evenodd;stroke-linejoin:round;stroke-miterlimit:2">
      <path
         d="M 494.843,42.912 H 220.597 v 304.787 h 274.246 z m -13.757,12.914 v 278.959 c -46.852,0 -199.88,0 -246.732,0 0,0 0,-278.959 0,-278.959 46.852,0 199.88,0 246.732,0 z"
         id="path196" />
    </g>
    <g
       transform="matrix(0.31175589,0,0,0.31175589,-31.129256,152.79171)"
       id="g244"
       style="clip-rule:evenodd;fill-rule:evenodd;stroke-linejoin:round;stroke-miterlimit:2">
      <g
         transform="matrix(50,0,0,50,310.345,101.569)"
         id="g202">
        <path
           d="M 0.181,-0.681 H 0.339 L 0.518,0 H 0.345 L 0.321,-0.135 H 0.191 L 0.166,0 H 0.003 Z m 0.076,0.186 -0.044,0.238 h 0.086 z"
           style="fill-rule:nonzero"
           id="path200" />
      </g>
      <g
         transform="matrix(50,0,0,50,336.395,101.569)"
         id="g206">
        <path
           d="m 0.049,-0.681 h 0.159 v 0.542 H 0.427 V 0 H 0.049 Z"
           style="fill-rule:nonzero"
           id="path204" />
      </g>
      <g
         transform="matrix(50,0,0,50,356.732,101.569)"
         id="g210">
        <path
           d="M 0.343,-0.051 C 0.328,-0.031 0.311,-0.015 0.293,-0.005 0.275,0.006 0.256,0.011 0.236,0.011 0.197,0.011 0.161,-0.004 0.128,-0.034 0.094,-0.065 0.069,-0.108 0.053,-0.163 0.037,-0.219 0.029,-0.278 0.029,-0.34 c 0,-0.105 0.024,-0.19 0.07,-0.255 0.047,-0.065 0.11,-0.097 0.19,-0.097 0.053,0 0.1,0.013 0.143,0.04 v 0.151 C 0.392,-0.535 0.354,-0.552 0.32,-0.552 c -0.044,0 -0.077,0.02 -0.099,0.059 -0.022,0.04 -0.033,0.093 -0.033,0.161 0,0.064 0.008,0.114 0.023,0.151 0.015,0.037 0.035,0.056 0.06,0.056 0.013,0 0.023,-0.006 0.029,-0.019 0.006,-0.013 0.01,-0.032 0.01,-0.057 V -0.244 H 0.257 V -0.367 H 0.458 V 0 H 0.38 Z"
           style="fill-rule:nonzero"
           id="path208" />
      </g>
      <g
         transform="matrix(50,0,0,50,381.732,101.569)"
         id="g214">
        <path
           d="m 0.263,-0.692 c 0.083,0 0.147,0.031 0.195,0.093 0.048,0.062 0.071,0.147 0.071,0.255 0,0.108 -0.024,0.194 -0.071,0.258 -0.048,0.065 -0.11,0.097 -0.187,0.097 -0.079,0 -0.14,-0.034 -0.183,-0.1 -0.043,-0.067 -0.065,-0.15 -0.065,-0.25 0,-0.069 0.011,-0.131 0.032,-0.186 0.021,-0.055 0.05,-0.096 0.089,-0.125 0.038,-0.028 0.078,-0.042 0.119,-0.042 z m 0.017,0.143 c -0.032,0 -0.056,0.019 -0.073,0.055 -0.017,0.037 -0.025,0.087 -0.025,0.151 0,0.065 0.008,0.116 0.024,0.153 0.017,0.037 0.039,0.055 0.068,0.055 0.029,0 0.052,-0.019 0.069,-0.057 C 0.361,-0.23 0.369,-0.281 0.369,-0.344 0.369,-0.41 0.36,-0.461 0.343,-0.496 0.326,-0.531 0.305,-0.549 0.28,-0.549 Z"
           style="fill-rule:nonzero"
           id="path212" />
      </g>
      <g
         transform="matrix(50,0,0,50,310.345,140.7)"
         id="g218">
        <path
           d="m 0.049,-0.681 h 0.243 c 0.051,0 0.092,0.014 0.124,0.044 0.032,0.029 0.047,0.067 0.047,0.115 0,0.036 -0.009,0.067 -0.028,0.093 -0.019,0.026 -0.048,0.047 -0.086,0.063 0.053,0.008 0.094,0.026 0.12,0.054 0.027,0.029 0.04,0.067 0.04,0.116 0,0.06 -0.021,0.108 -0.065,0.143 C 0.401,-0.018 0.342,0 0.268,0 H 0.049 Z m 0.159,0.132 v 0.13 h 0.018 c 0.023,0 0.042,-0.007 0.056,-0.019 0.014,-0.012 0.021,-0.029 0.021,-0.051 0,-0.02 -0.006,-0.035 -0.016,-0.045 C 0.276,-0.544 0.26,-0.549 0.238,-0.549 Z m 0,0.256 v 0.159 h 0.051 c 0.026,0 0.047,-0.007 0.064,-0.022 0.016,-0.015 0.025,-0.034 0.025,-0.057 0,-0.024 -0.009,-0.044 -0.026,-0.058 C 0.305,-0.286 0.284,-0.293 0.259,-0.293 Z"
           style="fill-rule:nonzero"
           id="path216" />
      </g>
      <g
         transform="matrix(50,0,0,50,335.907,140.7)"
         id="g222">
        <path
           d="m 0.041,-0.681 h 0.158 v 0.451 c 0,0.036 0.005,0.063 0.015,0.081 0.01,0.018 0.025,0.027 0.045,0.027 0.021,0 0.036,-0.008 0.046,-0.025 0.011,-0.016 0.016,-0.041 0.016,-0.074 v -0.46 H 0.48 v 0.469 c 0,0.071 -0.019,0.126 -0.058,0.165 C 0.383,-0.009 0.328,0.011 0.257,0.011 0.189,0.011 0.136,-0.008 0.098,-0.045 0.06,-0.083 0.041,-0.138 0.041,-0.212 Z"
           style="fill-rule:nonzero"
           id="path220" />
      </g>
      <g
         transform="matrix(50,0,0,50,361.957,140.7)"
         id="g226">
        <rect
           x="0.050000001"
           y="-0.68099999"
           width="0.16"
           height="0.68099999"
           style="fill-rule:nonzero"
           id="rect224" />
      </g>
      <g
         transform="matrix(50,0,0,50,374.969,140.7)"
         id="g230">
        <path
           d="m 0.049,-0.681 h 0.159 v 0.542 H 0.427 V 0 H 0.049 Z"
           style="fill-rule:nonzero"
           id="path228" />
      </g>
      <g
         transform="matrix(50,0,0,50,395.795,140.7)"
         id="g234">
        <path
           d="m 0.049,-0.681 h 0.199 c 0.06,0 0.109,0.014 0.148,0.042 0.04,0.028 0.068,0.068 0.085,0.119 0.016,0.052 0.025,0.109 0.025,0.172 0,0.105 -0.024,0.189 -0.071,0.253 C 0.387,-0.032 0.318,0 0.227,0 H 0.049 Z m 0.159,0.132 v 0.416 h 0.011 c 0.083,0 0.124,-0.075 0.124,-0.224 0,-0.058 -0.009,-0.104 -0.027,-0.139 C 0.298,-0.531 0.269,-0.549 0.229,-0.549 Z"
           style="fill-rule:nonzero"
           id="path232" />
      </g>
      <g
         transform="matrix(50,0,0,50,422.357,140.7)"
         id="g238">
        <path
           d="m 0.049,-0.681 h 0.389 v 0.137 h -0.23 v 0.125 h 0.214 v 0.133 H 0.208 v 0.147 h 0.23 V 0 H 0.049 Z"
           style="fill-rule:nonzero"
           id="path236" />
      </g>
      <g
         transform="matrix(50,0,0,50,445.795,140.7)"
         id="g242">
        <path
           d="m 0.043,-0.681 h 0.245 c 0.055,0 0.1,0.014 0.135,0.043 0.034,0.028 0.051,0.069 0.051,0.122 0,0.043 -0.012,0.08 -0.037,0.11 -0.024,0.031 -0.061,0.055 -0.11,0.073 0.061,0.009 0.099,0.048 0.114,0.117 L 0.487,0 H 0.313 L 0.288,-0.188 C 0.284,-0.22 0.276,-0.244 0.265,-0.258 0.255,-0.273 0.239,-0.28 0.217,-0.28 H 0.202 V 0 H 0.043 Z m 0.159,0.132 v 0.146 h 0.035 c 0.025,0 0.043,-0.007 0.056,-0.022 0.013,-0.014 0.02,-0.033 0.02,-0.055 0,-0.023 -0.006,-0.04 -0.017,-0.052 C 0.285,-0.543 0.267,-0.549 0.244,-0.549 Z"
           style="fill-rule:nonzero"
           id="path240" />
      </g>
    </g>
  </g>
</svg>
